<svg xmlns="http://www.w3.org/2000/svg" viewBox="0 0 17.71 17.72"><defs><style>
                .cls-1 {
                  fill: none;
                  stroke: #231f20;
                  stroke-linecap: round;
                  stroke-linejoin: round;
                  stroke-width: 1.07px;
                }
              </style></defs> <g id="Layer_2" data-name="Layer 2"><g id="Layer_1-2" data-name="Layer 1"><path d="M.54,9.09V8.63a2.26,2.26,0,0,1,.75-1.16Q4.38,4.39,7.46,1.3A2.35,2.35,0,0,1,8.63.54h.46a2.28,2.28,0,0,1,1.17.76l6.35,6.35.2.21a1.54,1.54,0,0,1-.88,2.5,4.56,4.56,0,0,1-.54,0v4.91a1.79,1.79,0,0,1-1.86,1.87H11.05c-.41,0-.59-.19-.59-.6,0-1.25,0-2.49,0-3.74A.82.82,0,0,0,9.56,12c-.46,0-.92,0-1.38,0a.86.86,0,0,0-.93.92c0,1.24,0,2.48,0,3.72a.52.52,0,0,1-.59.59H4.22a1.8,1.8,0,0,1-1.9-1.9V10.41l0,0H2A1.49,1.49,0,0,1,.71,9.55,2.54,2.54,0,0,1,.54,9.09Z" class="cls-1"></path></g></g></svg>