<svg xmlns="http://www.w3.org/2000/svg" viewBox="0 0 17.71 17.72"><defs><style>
                .cls-1 {
                  fill: none;
                  stroke: #231f20;
                  stroke-linecap: round;
                  stroke-linejoin: round;
                  stroke-width: 1.07px;
                }

                .cls-2 {
                  fill: #e0052b;
                }
              </style></defs> <g id="Layer_2" data-name="Layer 2"><g id="Layer_1-2" data-name="Layer 1"><path d="M4.22,17.18a1.8,1.8,0,0,1-1.9-1.9V10.41l0,0H2A1.49,1.49,0,0,1,.71,9.55a2.54,2.54,0,0,1-.17-.46V8.63a2.26,2.26,0,0,1,.75-1.16Q4.38,4.39,7.46,1.3A2.35,2.35,0,0,1,8.63.54h.46a2.28,2.28,0,0,1,1.17.76l6.35,6.35.2.21a1.54,1.54,0,0,1-.88,2.5,4.56,4.56,0,0,1-.54,0v4.91a1.79,1.79,0,0,1-1.86,1.87Z" class="cls-1"></path> <polygon points="6.11 7.04 11.61 7.04 11.61 8.97 10.94 8.15 7.21 8.15 7.21 8.88 8.87 10.68 6.11 9.53 6.11 7.04" class="cls-2"></polygon> <polygon points="6.11 12.24 6.11 14.26 11.61 14.26 11.61 11.36 8.89 10.08 10.5 11.92 10.5 13.15 6.86 13.15 6.11 12.24" class="cls-2"></polygon></g></g></svg>